#!OML:ASF E:/inclinewalkrobotboard/Project1/Captureday1/Session1/subject1.ASF
:FULLY-SPECIFIED
:DEGREES
88
root 0 0 0 -2.163189245593146 -3.793521911252335 0.5055513726012373
lowerback 7.4691137224345425 1.60347736766356 -2.5114425112586076
upperback 1.914897531025939 1.9920091973476999 -0.07490550030639176
thorax -2.228785666154897 1.048750077665456 1.2175142834679242
lowerneck -9.103488599186862 -5.522298505412309 -6.455114893662072
upperneck 30.961313399086375 -8.661561369569963 6.090523543930244
head 11.573580210329773 -3.9534090538511037 2.0223980213797716
rclavicle -2.9965146748666176E-15 1.7759586172841282E-15
rhumerus -10.035183956486847 4.169865826255779 -79.9317317187948
rradius 51.83250424126408
rwrist -21.500001784568347
rhand -41.83207127729844 15.189564580674423
rfingers 7.125019999999951
rthumb -14.70211882956415 -14.241863285890103
lclavicle -6.696816795232258E-15 1.389413110625075E-15
lhumerus -30.786484246420184 11.596305175841342 77.48209109913292
lradius 24.83303639944584
lwrist -4.757092204226748
lhand -24.11026651920308 21.967643734620406
lfingers 7.125019999999954
lthumb 2.371793481659094 51.903733865100065
rfemur 1.6391683668914925 8.423776693953773 34.58840443373521
rtibia 26.64100620003525
rfoot -20.89738796499157 -9.172263016573488
rtoes 4.699127649019724
lfemur -30.62053575734423 2.467463231656227 -12.859627604879053
ltibia 49.70658399531866
lfoot -5.600216027663713 -3.3740990689576105
ltoes -6.949129939807145
89
root 0 0 0 -2.1362218772085573 -3.7627630024807437 0.5114127529782737
lowerback 7.494879557867358 1.6133159528676146 -2.5210917310724503
upperback 1.9378578304859548 2.0032007128586273 -0.08073289775310355
thorax -2.219623889596685 1.0549470912301913 1.2142981960070287
lowerneck -9.07595807973384 -5.535965223654401 -6.484444880286186
upperneck 30.904662857687462 -8.674454415285552 6.1433958500670975
head 11.556966874588337 -3.960065670384517 2.0429511071202273
rclavicle -2.751297140104255E-15 1.753069437940337E-15
rhumerus -10.084301684197374 4.184225968418902 -79.96344776651915
rradius 51.735543631062065
rwrist -21.470878108119855
rhand -41.85260523914174 15.270394995036387
rfingers 7.125019999999951
rthumb -14.720847825561298 -14.16069702248879
lclavicle -6.564303208252659E-15 1.4125927500739701E-15
lhumerus -30.883519502497478 11.708130396686972 77.30211684103989
lradius 24.79474018146563
lwrist -4.812822985716384
lhand -24.19980795131451 21.93164057880518
lfingers 7.125019999999955
lthumb 2.285931895744794 51.86885596669359
rfemur 2.284190090321466 8.455031752940046 34.636543181895405
rtibia 26.445451888358072
rfoot -21.011364500459507 -9.156718425887675
rtoes 4.314869991331414
lfemur -31.493879606209674 1.932374266450056 -12.835463598849675
ltibia 45.891347404975335
lfoot -5.574343333288025 -3.1936695747416923
ltoes -6.465946273651755
90
root 0 0 0 -2.1185560284885687 -3.7409384618745714 0.5132667903645014
lowerback 7.5217570857224585 1.6178686585147093 -2.5278962211278526
upperback 1.9450342124061333 2.007993810666537 -0.08246013304573252
thorax -2.228295358421339 1.0573992920864244 1.2146793326606646
lowerneck -9.086723634025752 -5.544057574033003 -6.4970970064082385
upperneck 30.877204364280818 -8.679558451840856 6.172933658336139
head 11.551204253412006 -3.962436626441158 2.0552435473032835
rclavicle -2.4537381253919975E-15 1.7066093614692407E-15
rhumerus -9.990838518335437 4.014332442611483 -79.96456633155037
rradius 51.426638736005195
rwrist -21.3911589213704
rhand -41.88420820227362 15.40465926992877
rfingers 7.125019999999951
rthumb -14.74861155161996 -14.024548993469963
lclavicle -6.3961888431086805E-15 1.3940308181547322E-15
lhumerus -30.96076030435051 11.810873744666937 77.15210651038124
lradius 24.76526739332544
lwrist -4.855688308903937
lhand -24.284518661543913 21.894952355507684
lfingers 7.125019999999956
lthumb 2.2047255037749682 51.83338557724014
rfemur 2.5099127100148046 8.460079146134873 34.64196113827098
rtibia 26.577390354163896
rfoot -20.89285003038109 -9.123088723125406
rtoes 3.9515788238030565
lfemur -31.93115359639483 1.4859609874233524 -12.940812213533736
ltibia 42.79785504850966
lfoot -5.325259071913223 -3.3318695789669786
ltoes -5.891954762184392
91
root 0 0 0 -2.1069669304623257 -3.7263169503392435 0.5103138440203638
lowerback 7.561936745100171 1.6157478103862655 -2.5332520350666696
upperback 1.9330303059653837 2.0043176713941384 -0.07844856949445478
thorax -2.266017758463236 1.0548929429141738 1.2212575357659272
lowerneck -9.153872438482459 -5.546669203800233 -6.48916688709993
upperneck 30.880959536816427 -8.674845402388419 6.180104408511673
head 11.55800445585126 -3.959420510177984 2.060361048072193
rclavicle -2.0499926091037202E-15 1.6302318502547923E-15
rhumerus -9.66076154959907 3.5225138059361916 -79.92180400563164
rradius 50.73066916160398
rwrist -21.213878999391937
rhand -41.944579556325806 15.645713263005199
rfingers 7.1250199999999495
rthumb -14.801287261105987 -13.778532563544818
lclavicle -6.1687160310336465E-15 1.3375211490388316E-15
lhumerus -31.03753638447256 11.94118637070239 76.98964984786835
lradius 24.742447327630554
lwrist -4.8887794847340516
lhand -24.402157715464586 21.84154218924305
lfingers 7.125019999999957
lthumb 2.0919445217091983 51.781779566677194
rfemur 2.041372388190515 8.413032876931847 34.582777254368196
rtibia 27.407441625078853
rfoot -20.328935037462085 -9.070923752003539
rtoes 3.5885771384268454
lfemur -31.8698399145894 1.0963237803819883 -13.325072970568439
ltibia 40.165837116852785
lfoot -4.695503731063918 -3.995739833409738
ltoes -5.001593749120534
